<?xml version="1.0" standalone="no"?>
<!DOCTYPE svg PUBLIC "-//W3C//DTD SVG 20010904//EN"
 "http://www.w3.org/TR/2001/REC-SVG-20010904/DTD/svg10.dtd">
<svg version="1.0" xmlns="http://www.w3.org/2000/svg"
 width="4096.000000pt" height="4096.000000pt" viewBox="0 0 4096.000000 4096.000000"
 preserveAspectRatio="xMidYMid meet">
<metadata>
Created by potrace 1.14, written by Peter Selinger 2001-2017
</metadata>
<g transform="translate(0.000000,4096.000000) scale(0.100000,-0.100000)"
fill="#000000" stroke="none">
<path d="M25713 34713 c-13 -3 -23 -9 -23 -14 0 -5 -5 -9 -11 -9 -15 0 -59
-51 -59 -67 0 -7 -19 -18 -42 -24 -62 -15 -104 -74 -112 -154 -3 -33 -8 -71
-11 -85 -2 -14 -7 -52 -10 -85 -3 -33 -8 -73 -10 -90 -8 -55 -24 -189 -30
-240 -12 -112 -63 -537 -70 -590 -3 -16 -7 -50 -9 -75 -7 -65 -36 -300 -41
-336 -2 -17 -7 -57 -10 -90 -3 -32 -8 -70 -10 -84 -2 -14 -7 -52 -10 -85 -4
-33 -8 -71 -10 -85 -2 -14 -6 -50 -10 -80 -3 -30 -12 -107 -20 -170 -8 -63
-17 -137 -20 -165 -2 -27 -7 -66 -9 -85 -7 -42 -13 -95 -21 -175 -4 -33 -8
-71 -10 -85 -10 -71 -16 -120 -35 -285 -12 -99 -23 -191 -25 -205 -2 -14 -6
-54 -10 -90 -4 -36 -8 -76 -10 -90 -7 -47 -14 -105 -20 -160 -3 -30 -8 -66
-10 -80 -2 -14 -6 -50 -10 -80 -11 -100 -16 -145 -20 -170 -2 -14 -9 -70 -15
-125 -11 -97 -17 -153 -25 -205 -2 -14 -6 -52 -10 -85 -9 -88 -53 -458 -65
-545 -5 -41 -12 -100 -15 -130 -3 -30 -10 -91 -15 -135 -6 -44 -13 -96 -15
-115 -6 -51 -35 -289 -40 -335 -3 -22 -8 -62 -11 -90 -4 -27 -7 -56 -7 -62 0
-7 -1 -13 -1 -13 -1 0 -16 4 -35 10 -29 8 -279 53 -361 65 -14 2 -77 13 -140
24 -63 12 -128 23 -145 25 -16 2 -124 20 -240 40 -115 19 -316 53 -445 75
-129 22 -248 42 -265 45 -16 3 -113 20 -215 36 -102 17 -207 35 -235 40 -47 9
-186 32 -265 45 -19 3 -98 17 -175 30 -141 24 -177 31 -237 40 -18 3 -44 7
-58 10 -14 3 -38 7 -55 9 -76 12 -103 17 -150 26 -27 5 -63 12 -80 14 -44 8
-391 66 -450 76 -27 4 -95 6 -150 3 -82 -4 -128 -14 -259 -54 -88 -27 -169
-49 -181 -49 -11 0 -25 -4 -30 -8 -6 -5 -39 -19 -75 -31 -60 -22 -148 -53
-325 -118 -38 -14 -83 -31 -100 -38 -16 -7 -41 -16 -55 -20 -14 -4 -135 -48
-270 -97 -135 -49 -299 -109 -365 -133 -237 -86 -341 -124 -425 -155 -47 -17
-89 -32 -95 -34 -5 -2 -21 -7 -35 -13 -14 -6 -54 -20 -90 -32 -36 -12 -74 -26
-85 -31 -19 -8 -135 -51 -400 -145 -66 -24 -214 -78 -330 -120 -115 -43 -214
-78 -220 -80 -5 -1 -23 -8 -40 -14 -16 -7 -59 -23 -95 -36 -146 -51 -246 -87
-265 -96 -11 -5 -63 -24 -115 -43 -52 -18 -158 -56 -235 -84 -77 -28 -174 -62
-215 -77 -41 -15 -84 -31 -95 -36 -11 -5 -72 -27 -135 -50 -63 -22 -144 -51
-180 -65 -36 -13 -96 -35 -135 -49 -38 -14 -97 -35 -130 -46 -33 -11 -69 -25
-80 -29 -49 -23 -159 -58 -166 -54 -4 2 -23 29 -41 60 -46 77 -50 84 -80 129
-47 71 -338 536 -338 540 0 2 -22 38 -50 79 -27 42 -50 80 -50 85 0 4 -7 14
-16 22 -8 7 -24 29 -35 48 -11 20 -27 48 -37 62 -9 15 -32 51 -50 80 -18 30
-56 91 -85 136 -29 45 -86 137 -127 203 -41 66 -87 140 -102 163 -15 23 -42
66 -60 96 -18 29 -40 64 -48 77 -8 13 -82 131 -164 261 -82 131 -173 275 -203
320 -29 46 -53 87 -53 93 0 5 -4 10 -10 10 -5 0 -10 5 -10 10 0 6 -20 41 -44
78 -24 37 -74 114 -111 172 -62 96 -156 215 -210 266 -43 40 -77 47 -475 89
-80 9 -161 18 -180 20 -19 3 -57 7 -85 10 -27 3 -88 10 -135 15 -47 6 -107 13
-135 16 -27 2 -61 7 -75 9 -14 2 -55 7 -92 10 -37 3 -75 7 -85 9 -10 2 -49 7
-88 10 -38 4 -81 9 -95 11 -14 2 -52 6 -85 10 -33 3 -71 8 -85 10 -14 2 -50 6
-80 9 -78 8 -328 36 -370 41 -19 3 -60 7 -90 10 -30 3 -68 8 -85 10 -57 7
-180 19 -195 19 -34 0 -90 -16 -90 -25 0 -6 -4 -8 -9 -4 -5 3 -12 1 -16 -5 -3
-5 -14 -10 -23 -10 -22 -1 -50 -25 -87 -75 -17 -22 -34 -45 -40 -51 -5 -6 -17
-22 -25 -34 -38 -56 -106 -145 -112 -148 -5 -2 -8 -8 -8 -13 0 -6 -5 -15 -10
-22 -9 -10 -120 -162 -204 -277 -14 -19 -91 -125 -171 -235 -81 -110 -157
-216 -170 -235 -13 -19 -59 -83 -102 -141 -43 -59 -123 -169 -178 -245 -55
-77 -104 -144 -110 -150 -5 -6 -17 -22 -25 -34 -34 -50 -134 -185 -147 -198
-7 -7 -13 -17 -13 -22 0 -5 -6 -15 -13 -22 -7 -7 -24 -29 -37 -48 -13 -19 -30
-41 -37 -48 -7 -7 -13 -17 -13 -21 0 -4 -8 -16 -18 -27 -10 -10 -43 -55 -74
-99 -32 -44 -61 -84 -65 -90 -14 -16 -201 -274 -255 -352 -60 -85 -532 -732
-546 -748 -5 -6 -26 -35 -47 -65 -21 -30 -46 -64 -56 -76 -11 -11 -19 -24 -19
-29 0 -4 -7 -15 -16 -24 -8 -9 -126 -170 -262 -357 -136 -188 -255 -352 -264
-365 -27 -36 -117 -161 -168 -232 -25 -34 -48 -66 -53 -72 -11 -13 -173 -237
-294 -405 -53 -74 -101 -139 -106 -145 -7 -8 -60 -83 -125 -174 -9 -13 -23
-29 -30 -36 -6 -8 -12 -18 -12 -23 0 -6 -4 -12 -8 -14 -4 -1 -30 -34 -57 -73
-27 -38 -52 -72 -55 -75 -4 -3 -21 -27 -40 -55 -19 -27 -36 -52 -40 -55 -3 -3
-46 -61 -95 -130 -49 -69 -92 -127 -95 -130 -9 -8 -60 -89 -60 -95 0 -3 -5
-11 -10 -18 -6 -7 -29 -39 -51 -72 -22 -33 -52 -77 -67 -98 -20 -30 -26 -50
-25 -90 2 -54 6 -61 191 -323 31 -44 127 -179 212 -300 85 -120 158 -223 162
-229 27 -34 149 -208 156 -222 5 -10 12 -100 16 -200 7 -188 7 -193 24 -258 6
-22 13 -71 17 -109 4 -38 8 -79 10 -90 4 -21 10 -76 20 -163 3 -27 8 -61 10
-78 2 -16 11 -88 19 -160 9 -71 18 -148 21 -170 3 -22 7 -60 10 -85 3 -25 8
-56 10 -70 2 -14 7 -54 10 -90 4 -36 9 -74 10 -85 2 -11 6 -45 9 -75 15 -127
37 -297 40 -320 2 -14 7 -54 11 -90 3 -36 8 -78 10 -95 5 -38 15 -121 20 -160
2 -16 11 -88 20 -160 16 -133 17 -145 35 -293 15 -118 17 -138 25 -202 3 -30
8 -71 10 -90 22 -177 55 -446 60 -490 3 -30 8 -70 11 -87 10 -79 13 -101 19
-158 3 -33 8 -69 10 -80 2 -11 7 -47 10 -80 3 -33 8 -71 10 -85 3 -14 9 -65
15 -115 14 -135 20 -183 30 -255 5 -36 12 -92 15 -125 4 -33 8 -73 11 -90 2
-16 10 -84 18 -150 8 -66 17 -136 20 -155 3 -19 12 -98 21 -176 9 -77 18 -152
20 -165 2 -13 9 -67 15 -119 16 -140 19 -164 35 -295 14 -111 22 -172 30 -235
2 -14 6 -54 9 -90 4 -36 9 -76 11 -90 3 -14 7 -47 10 -75 6 -55 7 -63 30 -245
8 -69 18 -143 20 -165 3 -22 7 -60 11 -84 3 -24 7 -60 9 -81 4 -39 42 -359 50
-420 3 -19 7 -51 10 -70 3 -19 7 -57 10 -85 7 -67 15 -133 21 -173 2 -18 7
-54 9 -80 14 -118 36 -299 40 -322 2 -14 6 -50 9 -80 3 -30 12 -109 21 -175 9
-66 18 -138 20 -160 3 -22 14 -112 25 -200 11 -88 22 -185 25 -215 3 -30 8
-66 10 -80 2 -14 7 -50 10 -80 4 -30 8 -66 10 -80 2 -14 7 -56 11 -95 4 -38 8
-72 9 -75 1 -3 5 -36 9 -75 4 -38 9 -81 11 -95 2 -14 6 -47 10 -75 3 -27 8
-66 10 -85 11 -84 25 -199 30 -245 3 -27 9 -84 14 -125 12 -91 21 -163 27
-210 9 -79 15 -126 19 -150 2 -14 7 -52 10 -85 3 -33 8 -73 10 -90 2 -16 7
-52 10 -80 3 -27 8 -63 10 -80 2 -16 11 -91 20 -165 9 -74 18 -146 20 -160 5
-34 13 -97 25 -208 6 -52 12 -108 15 -125 2 -18 6 -52 9 -77 6 -52 24 -199 31
-250 2 -19 7 -60 10 -90 4 -30 8 -64 10 -76 10 -64 18 -170 20 -244 1 -47 2
-95 3 -107 2 -19 81 -89 117 -104 6 -2 83 -48 170 -102 88 -54 169 -104 180
-110 11 -7 38 -24 60 -38 22 -14 110 -68 195 -119 85 -52 157 -98 158 -102 2
-4 8 -8 13 -8 5 0 28 -12 52 -27 23 -15 51 -32 62 -39 21 -11 227 -137 505
-309 295 -182 340 -210 383 -234 23 -13 44 -28 45 -32 2 -5 8 -9 12 -9 9 0
239 -138 250 -150 3 -3 21 -14 41 -25 61 -34 524 -318 529 -325 3 -4 13 -9 23
-13 18 -7 24 -27 7 -27 -19 0 -25 -2 -62 -21 -21 -11 -38 -23 -38 -27 0 -5 -9
-17 -19 -29 -16 -17 -19 -33 -16 -94 3 -78 4 -83 29 -170 9 -30 16 -55 16 -57
-3 -7 33 -121 47 -151 8 -18 16 -39 17 -45 1 -6 5 -17 9 -23 5 -7 5 -13 1 -13
-3 0 0 -10 9 -23 8 -12 18 -38 22 -57 4 -19 14 -44 21 -55 7 -11 13 -23 14
-27 0 -5 1 -10 1 -13 1 -3 2 -8 3 -12 1 -5 12 -35 24 -68 30 -79 33 -90 32
-93 0 -1 7 -16 15 -32 9 -17 13 -30 9 -30 -3 0 1 -11 10 -25 9 -14 14 -25 10
-25 -4 0 -1 -7 6 -15 7 -8 9 -15 5 -15 -4 0 -2 -7 5 -15 7 -8 9 -15 5 -15 -4
0 0 -11 9 -25 9 -14 14 -25 11 -25 -3 0 1 -14 10 -30 9 -17 13 -30 10 -30 -3
0 0 -10 7 -23 7 -12 13 -25 14 -29 1 -5 3 -10 4 -13 1 -3 3 -8 5 -12 1 -5 7
-21 14 -38 7 -16 14 -34 15 -40 1 -5 5 -16 9 -23 5 -6 6 -12 3 -12 -3 0 6 -25
19 -55 14 -30 25 -57 25 -60 0 -3 7 -21 15 -41 8 -20 15 -40 15 -45 0 -4 5
-20 12 -36 6 -15 12 -31 13 -35 2 -5 4 -10 5 -13 1 -3 3 -8 4 -12 1 -5 6 -21
13 -38 15 -40 24 -69 24 -75 0 -3 7 -15 15 -28 8 -12 12 -27 9 -32 -3 -6 -1
-10 5 -10 6 0 9 -3 7 -8 -3 -4 3 -25 14 -46 10 -22 19 -47 19 -56 0 -9 5 -21
12 -28 7 -7 9 -12 5 -12 -4 0 2 -18 13 -40 11 -22 21 -51 22 -65 1 -14 6 -25
9 -25 4 0 11 -15 15 -32 3 -18 13 -42 20 -53 7 -11 13 -23 14 -27 0 -5 0 -9 1
-10 0 -2 2 -13 5 -26 2 -12 11 -33 19 -46 8 -12 13 -25 10 -27 -4 -5 5 -16 72
-92 51 -59 106 -79 223 -83 36 -1 66 -3 68 -4 17 -17 155 -24 527 -25 231 -2
420 -4 420 -5 0 -3 598 -8 1342 -12 243 -2 444 -6 448 -10 4 -4 12 -5 18 -3 7
2 36 6 66 10 32 3 85 20 126 40 39 19 78 35 86 35 9 0 19 3 23 7 3 4 14 8 23
9 18 3 64 25 73 35 7 8 101 50 119 54 9 2 29 8 45 14 16 7 31 9 34 6 3 -2 11
0 19 7 7 6 16 8 19 5 3 -3 23 1 45 8 21 8 39 12 39 9 0 -2 8 0 18 5 11 6 32
13 48 16 69 14 78 16 86 21 5 3 18 7 31 10 49 9 63 13 92 24 17 6 31 11 33 11
1 -1 3 -1 5 0 1 0 13 3 27 6 39 7 55 11 55 13 0 1 11 4 25 7 38 7 55 11 58 13
1 2 7 4 12 5 6 1 11 3 13 4 1 2 13 5 27 8 33 6 54 11 60 13 3 1 9 2 14 1 4 -1
14 4 22 10 8 7 17 9 21 6 3 -4 12 -2 20 4 7 6 13 8 13 4 0 -4 7 -2 15 5 8 6
19 9 24 6 5 -4 13 -2 16 4 4 6 15 8 26 5 11 -4 19 -2 19 5 0 7 6 10 14 7 8 -3
17 -3 20 1 4 3 12 7 19 8 38 7 65 13 87 22 14 5 28 10 33 11 4 0 8 1 10 2 1 0
9 2 17 4 8 2 26 7 40 10 14 4 34 8 45 9 11 2 20 4 20 5 0 2 11 4 25 7 14 2 32
7 40 11 8 3 24 8 35 10 40 9 50 12 50 14 0 1 9 3 20 5 26 4 60 12 60 14 0 1 8
3 17 5 9 2 32 8 50 14 18 6 47 13 63 16 47 9 49 10 63 18 6 5 12 6 12 3 0 -3
18 1 40 9 22 8 40 12 40 8 0 -3 7 0 15 7 9 7 18 10 22 7 3 -4 12 -2 20 5 7 6
16 8 19 5 4 -3 28 2 55 12 26 10 50 17 53 14 2 -3 13 0 23 5 10 6 34 13 53 16
34 7 60 13 70 16 3 1 9 2 13 1 4 -1 18 4 30 11 12 6 31 13 42 14 26 4 60 12
60 14 0 1 7 3 15 5 8 2 26 7 40 10 14 4 34 8 45 10 11 2 31 7 45 13 14 5 28
10 33 11 4 0 8 1 10 2 9 3 45 11 62 13 11 2 20 4 20 5 0 2 7 4 15 6 8 2 26 7
40 10 14 3 32 8 40 10 8 2 15 4 15 6 0 1 9 3 20 5 26 4 60 12 60 14 0 1 11 4
25 7 38 7 55 11 58 13 1 2 7 4 12 5 6 1 13 4 18 5 4 1 12 3 17 5 6 1 12 3 15
4 3 2 12 4 20 6 8 2 26 7 40 10 14 4 33 7 42 7 10 -1 20 4 23 9 4 5 11 7 16 4
5 -4 15 -3 22 2 6 4 18 9 25 10 30 7 47 12 47 13 0 2 3 2 60 15 43 9 60 13 60
15 0 1 8 3 18 6 9 2 25 6 35 8 9 3 17 5 17 6 0 2 34 10 60 15 11 2 20 4 20 5
0 1 9 3 20 5 26 5 60 13 60 15 0 1 8 3 18 6 9 2 25 6 35 8 9 3 17 5 17 6 0 2
17 6 60 15 56 13 60 13 63 15 1 2 7 4 12 5 6 1 11 3 13 5 1 1 11 3 22 5 21 4
57 12 65 15 3 1 10 3 15 5 6 1 12 3 15 4 7 3 42 11 65 15 11 2 21 5 23 6 1 1
7 4 12 5 6 1 11 3 13 5 1 1 11 3 22 5 26 5 60 13 60 15 0 2 27 8 60 15 34 7
49 12 75 22 14 6 29 9 33 6 4 -3 14 1 22 7 8 6 19 9 24 6 5 -4 12 -2 16 3 3 5
13 10 23 10 16 0 54 7 60 11 1 2 7 4 12 5 6 1 11 3 13 5 1 1 16 4 32 6 17 3
37 8 45 11 8 4 20 8 25 9 6 1 12 3 15 4 9 3 44 11 66 15 12 1 31 8 42 14 12 6
25 11 29 10 4 -1 10 0 13 1 3 1 14 3 25 5 26 5 60 13 60 15 0 1 11 4 25 7 38
7 55 11 58 13 1 2 7 4 12 5 6 1 11 4 13 5 1 1 11 4 22 6 11 1 31 5 45 9 14 3
32 8 40 10 8 2 15 4 15 5 0 1 7 3 15 5 39 10 57 15 88 24 17 5 32 7 32 4 0 -3
6 0 13 6 8 6 17 8 20 4 4 -3 12 -1 19 4 7 6 20 11 28 11 16 1 55 9 55 12 0 1
8 3 18 6 9 2 25 6 35 8 9 3 17 5 17 6 0 1 7 3 15 5 8 2 26 6 40 9 14 3 38 8
54 11 16 3 36 10 45 14 9 5 19 9 24 10 4 1 8 1 10 2 1 0 10 2 20 5 9 2 23 6
30 7 6 2 30 7 52 11 22 4 47 10 55 13 8 4 17 7 20 7 3 1 11 5 18 9 6 5 12 6
12 3 0 -2 15 0 33 6 17 5 41 11 52 13 11 2 31 7 45 10 14 3 32 8 40 10 8 2 15
4 15 5 0 1 8 3 18 6 9 2 25 6 35 8 9 3 17 5 17 6 0 3 41 12 63 13 12 0 22 5
22 11 0 5 3 7 6 3 3 -3 17 -2 30 3 14 6 37 12 52 15 31 7 55 13 62 15 3 1 9 2
14 1 4 -1 14 3 22 10 7 6 18 8 23 5 5 -4 13 -1 16 5 4 5 13 8 20 5 7 -2 16 -2
20 2 4 4 11 8 16 8 5 1 10 2 12 4 3 2 37 10 62 14 11 2 20 4 20 5 0 2 11 5 25
8 38 7 55 11 58 13 1 2 7 4 12 5 6 1 11 3 13 5 1 1 10 3 20 5 10 2 26 10 35
18 15 12 46 28 62 31 3 1 11 5 18 9 6 5 12 6 12 3 0 -3 12 -1 28 5 37 15 72
19 72 8 0 -5 6 -9 14 -9 8 0 90 -20 182 -45 93 -24 228 -56 299 -71 72 -14
137 -27 145 -29 8 -2 128 -26 265 -55 138 -28 338 -70 445 -92 269 -56 247
-51 520 -107 135 -28 343 -71 463 -95 l219 -45 96 33 c53 18 117 43 142 54 25
11 79 35 120 52 87 38 153 66 195 85 17 7 152 66 300 130 149 64 288 124 310
134 22 10 101 44 175 76 74 32 162 70 195 85 33 15 71 31 85 35 14 4 30 11 35
15 6 5 35 18 65 30 60 23 129 54 173 77 15 8 27 11 27 7 0 -3 6 -2 13 3 6 6
125 59 262 118 138 59 277 120 310 135 33 15 71 31 85 35 14 4 30 11 35 15 6
4 71 33 145 65 138 59 175 75 290 125 133 58 159 69 345 150 104 45 210 90
235 101 25 11 55 24 68 30 40 16 66 28 146 64 43 19 85 35 92 35 8 0 14 5 14
10 0 6 6 10 13 10 7 0 64 23 127 50 63 28 125 55 138 60 12 6 32 14 45 19 12
6 45 20 72 32 109 48 376 163 475 205 58 25 119 51 135 59 32 14 251 109 350
152 64 27 123 53 192 84 24 11 45 19 47 19 2 0 42 17 88 38 45 22 108 49 138
60 177 69 245 100 243 110 -2 7 1 12 5 12 5 0 9 6 10 13 4 49 13 111 18 118 3
5 7 19 9 32 3 12 36 119 75 237 39 118 134 409 211 645 78 237 165 502 194
590 29 88 121 369 205 625 222 677 241 734 248 740 15 11 32 56 33 85 3 98
-34 130 -266 230 -87 37 -174 79 -170 83 2 2 -3 20 -11 39 -9 19 -14 36 -12
38 9 7 192 131 206 140 9 6 19 12 22 15 10 11 60 40 66 39 4 0 10 4 14 10 3 6
44 37 90 69 47 31 100 77 118 102 19 25 41 54 50 66 10 11 19 27 20 35 10 37
14 65 13 74 -1 6 -3 35 -5 65 -2 30 -5 55 -6 55 -1 0 -4 20 -6 45 -3 45 -7 79
-19 195 -6 57 -11 112 -19 200 -2 22 -5 40 -6 40 -1 0 -4 20 -6 45 -2 25 -6
70 -9 100 -3 30 -7 73 -9 95 -2 22 -5 40 -6 40 -2 0 -5 13 -14 54 -10 45 -70
105 -127 126 -30 11 -57 20 -61 21 -5 1 -11 3 -15 4 -5 1 -11 2 -15 1 -5 0 -8
3 -8 8 0 5 -8 8 -17 6 -10 -1 -24 2 -30 8 -7 5 -13 7 -13 3 0 -4 -14 1 -31 9
-17 9 -33 14 -37 11 -3 -3 -11 -1 -19 5 -7 6 -13 9 -13 5 0 -4 -13 0 -29 8
-16 9 -31 12 -35 9 -10 -10 -7 14 6 42 6 14 15 25 20 25 5 0 7 4 3 9 -3 5 0
16 7 23 13 14 33 48 71 123 11 22 27 48 36 58 8 10 16 25 17 33 1 9 8 23 16
32 14 18 25 37 71 122 17 30 33 57 37 60 3 3 16 25 28 50 12 25 31 59 41 75
26 43 60 102 94 163 16 29 48 67 72 85 24 18 49 41 56 52 14 22 21 134 9 150
-7 10 -19 52 -19 68 0 4 -7 15 -16 23 -8 9 -15 21 -15 28 0 8 -7 31 -16 52 -9
22 -16 41 -16 44 1 3 -6 15 -14 28 -8 12 -12 22 -8 22 4 0 1 7 -6 15 -7 8 -9
15 -5 15 4 0 3 6 -2 13 -12 14 -38 89 -35 100 1 4 -2 7 -6 7 -6 0 -41 80 -48
110 0 3 -6 18 -12 33 -7 16 -12 30 -12 33 0 2 -9 23 -19 47 -18 41 -26 62 -31
82 -1 6 -7 19 -13 30 -6 11 -12 27 -13 35 -2 8 -7 23 -12 35 -29 64 -53 122
-57 135 0 3 -6 15 -13 28 -7 12 -9 22 -5 22 4 0 2 5 -5 12 -7 7 -12 17 -12 24
0 6 -6 27 -14 45 -8 19 -14 36 -13 39 0 3 -6 16 -13 30 -8 14 -13 31 -12 38 2
6 -2 12 -7 12 -6 0 -15 19 -22 43 -6 23 -16 48 -21 55 -6 6 -7 12 -3 12 4 0 2
6 -4 14 -7 8 -14 24 -16 37 -5 26 -59 85 -95 104 -20 10 -127 14 -137 5 -2 -1
-7 -4 -13 -5 -5 -1 -13 -4 -17 -5 -5 -1 -11 -2 -15 -1 -4 0 -17 -8 -30 -19
-77 -65 -241 -190 -249 -190 -5 0 -9 -4 -9 -8 0 -5 -18 -21 -40 -38 -23 -16
-55 -41 -73 -57 -86 -74 -219 -169 -244 -173 -35 -7 -79 -34 -122 -79 -19 -19
-36 -33 -38 -31 -4 3 -11 209 -18 506 -3 118 -7 298 -10 400 -6 235 -13 494
-20 780 -3 124 -8 295 -10 380 -3 85 -7 256 -10 380 -6 239 -11 451 -20 775
-3 110 -7 288 -10 395 -3 107 -7 272 -10 365 -3 94 -7 267 -10 385 -3 118 -7
296 -10 395 -3 99 -7 272 -10 385 -5 213 -12 477 -20 760 -3 91 -7 284 -11
430 -3 146 -7 315 -8 375 -3 125 -13 183 -33 204 -18 17 -15 31 49 201 28 74
68 180 88 235 21 55 43 114 50 130 7 17 14 35 16 40 2 9 24 71 58 162 7 18 15
36 19 39 4 4 7 14 7 22 0 8 6 28 14 45 15 36 35 88 101 267 25 69 50 134 54
145 5 11 20 52 34 90 15 39 32 84 38 100 7 17 13 35 14 40 2 6 12 33 23 60 23
55 227 599 317 845 13 36 38 101 55 145 17 44 35 93 40 109 5 16 29 81 54 145
56 147 209 554 361 961 64 173 126 334 136 357 10 24 19 46 19 50 0 8 75 212
95 258 7 17 16 41 20 55 4 14 13 39 20 55 7 17 25 64 39 105 15 41 32 84 37
95 12 28 32 78 34 90 4 13 83 225 94 250 5 11 30 79 56 150 26 72 55 149 66
172 10 24 19 47 19 52 0 4 25 73 56 152 30 79 62 164 71 189 8 25 21 59 28 75
43 101 67 215 45 215 -5 0 -5 15 -2 33 12 64 -2 158 -41 257 -3 8 -28 89 -57
180 -28 91 -71 230 -96 310 -25 80 -52 164 -60 186 -29 81 -103 135 -251 185
-48 16 -95 32 -103 36 -8 3 -19 7 -25 9 -5 1 -64 21 -130 44 -66 23 -158 54
-205 70 -47 15 -211 71 -365 124 -154 54 -332 114 -395 136 -63 21 -259 88
-435 148 -176 60 -356 122 -400 136 -44 15 -87 30 -95 33 -8 3 -19 7 -25 9 -5
1 -82 27 -170 58 -88 30 -306 105 -485 166 -476 162 -856 292 -1105 377 -121
41 -310 106 -420 143 -110 38 -326 112 -480 165 -154 53 -332 113 -395 135
-63 21 -234 79 -380 129 -146 50 -310 107 -365 125 -55 19 -228 78 -385 132
-270 92 -325 106 -377 97z"/>
</g>
</svg>
